<svg width="27" height="28" viewBox="0 0 27 28" fill="none" xmlns="http://www.w3.org/2000/svg">
<path d="M4.82092 3.88889H23.2546C25.1271 3.88889 26.4492 5.82067 25.8571 7.69133L23.571 14.9136C23.1977 16.0931 22.1494 16.8889 20.9687 16.8889H6.58443M4.82092 3.88889L4.76551 3.48034C4.57244 2.05713 3.41502 1 2.04985 1H1M4.82092 3.88889L6.58443 16.8889M6.58443 16.8889L6.8358 18.7418C7.02887 20.165 8.18629 21.2222 9.55146 21.2222H21.5742M21.5742 21.2222C20.0592 21.2222 18.831 22.5156 18.831 24.1111C18.831 25.7066 20.0592 27 21.5742 27C23.0893 27 24.3175 25.7066 24.3175 24.1111C24.3175 22.5156 23.0893 21.2222 21.5742 21.2222ZM13.3445 24.1111C13.3445 25.7066 12.1164 27 10.6013 27C9.08627 27 7.85808 25.7066 7.85808 24.1111C7.85808 22.5156 9.08627 21.2222 10.6013 21.2222C12.1164 21.2222 13.3445 22.5156 13.3445 24.1111Z" stroke="black" stroke-width="2" stroke-linecap="round" stroke-linejoin="round"/>
</svg>
